<svg xmlns="http://www.w3.org/2000/svg" version="1.1" xmlns:xlink="http://www.w3.org/1999/xlink" xmlns:svgjs="http://svgjs.dev/svgjs" width="1000" height="164" viewBox="0 0 1000 164"><g transform="matrix(1,0,0,1,-0.6060606060606233,-0.6242448389632926)"><svg viewBox="0 0 396 65" data-background-color="#ffffff" preserveAspectRatio="xMidYMid meet" height="164" width="1000" xmlns="http://www.w3.org/2000/svg" xmlns:xlink="http://www.w3.org/1999/xlink"><g id="tight-bounds" transform="matrix(1,0,0,1,0.2400000000000091,0.2474141130037424)"><svg viewBox="0 0 395.52 64.50517177399249" height="64.50517177399249" width="395.52"><g><svg viewBox="0 0 488.8689439739562 79.72940737765563" height="64.50517177399249" width="395.52"><g transform="matrix(1,0,0,1,0,11.019042553641263)"><svg viewBox="0 0 395.52 57.69132227037311" height="57.69132227037311" width="395.52"><g id="textblocktransform"><svg viewBox="0 0 395.52 57.69132227037311" height="57.69132227037311" width="395.52" id="textblock"><g><svg viewBox="0 0 395.52 57.69132227037311" height="57.69132227037311" width="395.52"><g transform="matrix(1,0,0,1,0,0)"><svg width="395.52" viewBox="1.7799999713897705 -33.08000183105469 226.52000427246094 33.69000244140625" height="57.69132227037311" data-palette-color="#8bc53f"><g class="wordmark-text-0" data-fill-palette-color="primary" id="text-0"><path d="M30.88-19.63L30.96-19.58Q30.49-18.75 30.49-15.6L30.49-15.6 30.49-8.03Q30.49-4.59 26.93-2.05L26.93-2.05Q23.24 0.61 17.9 0.61L17.9 0.61Q10.47 0.61 6.05-4.05L6.05-4.05Q1.78-8.5 1.78-15.38L1.78-15.38Q1.78-22.71 6.13-27.59L6.13-27.59Q10.99-33.08 19.51-33.08L19.51-33.08Q25.2-33.08 28.52-30.88L28.52-30.88 28.13-23.68 27.93-23.63Q27.08-25.12 24.56-26.07L24.56-26.07Q22.17-26.98 19.54-26.98 16.92-26.98 14.95-26.15 12.99-25.32 11.62-23.78L11.62-23.78Q8.74-20.63 8.74-15.45L8.74-15.45Q8.74-10.94 11.28-8.2L11.28-8.2Q13.82-5.49 17.82-5.49L17.82-5.49Q22.24-5.49 23.78-7.79L23.78-7.79Q24.27-8.52 24.27-9.45L24.27-9.45 24.27-13.5 21.12-13.5Q18.58-13.5 18.36-13.06L18.36-13.06 18.29-13.09 18.07-19.46Q18.75-19.26 23.61-19.26L23.61-19.26 26.49-19.26Q29.17-19.26 30.88-19.63L30.88-19.63ZM53.66 0.2L48-12.62Q47.26-12.57 46.43-12.57 45.6-12.57 43.97-12.7L43.97-12.7 43.97 0 37.5 0 37.5-32.64Q40.92-33.08 45.9-33.08L45.9-33.08Q52.68-33.08 56.02-30.58 59.35-28.08 59.35-22.85L59.35-22.85Q59.35-18.8 56.3-15.92L56.3-15.92Q55.3-14.99 54-14.31L54-14.31 58.98-3.81Q60.45-0.56 61.23 0.05L61.23 0.05 61.11 0.17Q58.74-0.22 53.66 0.2L53.66 0.2ZM46.36-27.32L46.36-27.32Q45.11-27.32 43.97-27.2L43.97-27.2 43.97-17.87Q45.16-17.7 46.77-17.7 48.39-17.7 49.48-17.98 50.58-18.26 51.39-18.85L51.39-18.85Q53.12-20.14 53.12-22.73 53.12-25.32 51.32-26.37L51.32-26.37Q49.63-27.32 46.36-27.32ZM72.99-5.86L82.95-5.86Q84.47-5.86 85.05-6.15L85.05-6.15 85.15-6.13 84.91 0 66.62 0 66.62-32.64Q67.28-32.59 68.09-32.57L68.09-32.57 69.79-32.52Q71.5-32.47 73.51-32.47L73.51-32.47Q79.1-32.47 84.57-32.67L84.57-32.67Q84.3-30.52 84.3-26.93L84.3-26.93Q84.3-26.54 84.35-26.34L84.35-26.34 84.3-26.27Q83.03-26.64 80.68-26.64L80.68-26.64 72.99-26.64 72.99-20.41 78.78-20.41Q81.46-20.41 82-20.56L82-20.56 82.08-14.53Q80.9-14.65 79.05-14.65L79.05-14.65 72.99-14.65 72.99-5.86ZM98.04-5.86L108-5.86Q109.51-5.86 110.1-6.15L110.1-6.15 110.2-6.13 109.95 0 91.67 0 91.67-32.64Q92.33-32.59 93.13-32.57L93.13-32.57 94.84-32.52Q96.55-32.47 98.55-32.47L98.55-32.47Q104.14-32.47 109.61-32.67L109.61-32.67Q109.34-30.52 109.34-26.93L109.34-26.93Q109.34-26.54 109.39-26.34L109.39-26.34 109.34-26.27Q108.07-26.64 105.73-26.64L105.73-26.64 98.04-26.64 98.04-20.41 103.83-20.41Q106.51-20.41 107.05-20.56L107.05-20.56 107.12-14.53Q105.95-14.65 104.09-14.65L104.09-14.65 98.04-14.65 98.04-5.86ZM123.31 0L116.93 0Q117.08-0.83 117.08-1.81L117.08-1.81 117.08-32.47 121.96-32.47 134.9-12.11 134.9-30.81Q134.9-32.15 134.66-32.47L134.66-32.47 141.25-32.47Q141.13-31.49 141.13-30.32L141.13-30.32 141.13 0 136.05 0 123.31-19.56 123.31 0Z" fill="#8bc53f" data-fill-palette-color="primary"></path><path d="M161.56 0L161.56-32.64Q164.95-33.08 168.52-33.08L168.52-33.08Q175.16-33.08 178.61-29.97 182.07-26.86 182.07-20.65L182.07-20.65Q182.07-15.11 178.28-11.89L178.28-11.89Q174.74-8.86 169.18-8.86L169.18-8.86Q168.54-8.86 167.79-8.94L167.79-8.94 167.79 0 161.56 0ZM169.25-27.2L169.25-27.2Q168.52-27.2 167.79-27.15L167.79-27.15 167.79-14.31Q168.57-14.21 169.69-14.21 170.81-14.21 172.03-14.69 173.25-15.16 174.08-16.02L174.08-16.02Q175.82-17.8 175.82-20.7L175.82-20.7Q175.82-27.2 169.25-27.2ZM187.83 0L187.83-32.57Q190.27-32.47 190.78-32.47L190.78-32.47 192.54-32.47Q193.83-32.47 194.61-32.67L194.61-32.67 194.59 0 187.83 0ZM210.36 0L203.99 0Q204.13-0.83 204.13-1.81L204.13-1.81 204.13-32.47 209.02-32.47 221.96-12.11 221.96-30.81Q221.96-32.15 221.71-32.47L221.71-32.47 228.3-32.47Q228.18-31.49 228.18-30.32L228.18-30.32 228.18 0 223.1 0 210.36-19.56 210.36 0Z" fill="#5d9943" data-fill-palette-color="accent"></path></g></svg></g></svg></g></svg></g></svg></g><g transform="matrix(1,0,0,1,409.13953659630056,0)"><svg viewBox="0 0 79.72940737765563 79.72940737765563" height="79.72940737765563" width="79.72940737765563"><g><svg xmlns="http://www.w3.org/2000/svg" xmlns:xlink="http://www.w3.org/1999/xlink" version="1.1" x="0" y="0" viewBox="0 0 100 100" style="enable-background:new 0 0 100 100;" xml:space="preserve" height="79.72940737765563" width="79.72940737765563" class="icon-icon-0" data-fill-palette-color="accent" id="icon-0"><path d="M100 25c0-13.8-11.206-25-25-25-9.326 0-17.383 5.182-21.68 12.769 0-0.006 0.012-0.013 0.012-0.019-1.146-0.109-2.258-0.348-3.43-0.348-20.715 0-37.5 16.785-37.5 37.5 0 7.898 2.466 15.21 6.629 21.24L0 100l29.028-18.945c5.97 4.004 13.147 6.348 20.874 6.348 20.715 0 37.5-16.785 37.5-37.5 0-1.08-0.22-2.094-0.317-3.149C94.751 42.48 100 34.394 100 25zM49.902 74.902c-13.794 0-25-11.206-25-25 0-13.788 11.206-25 25-25 0.037 0 0.073 0.012 0.098 0.012 0-0.023 0.012-0.042 0.012-0.061C50.012 24.902 50 24.951 50 25c0 2.173 0.366 4.236 0.879 6.244l-9.912 9.918c-4.883 4.883-4.883 12.793 0 17.676s12.793 4.883 17.676 0l9.814-9.814c2.062 0.562 4.199 0.952 6.434 0.965C74.842 63.745 63.66 74.902 49.902 74.902zM75 37.5c-6.885 0-12.5-5.609-12.5-12.5S68.115 12.5 75 12.5 87.5 18.109 87.5 25 81.885 37.5 75 37.5z" fill="#5d9943" data-fill-palette-color="accent"></path></svg></g></svg></g></svg></g><defs></defs></svg><rect width="395.52" height="64.50517177399249" fill="none" stroke="none" visibility="hidden"></rect></g></svg></g></svg>