<svg xmlns="http://www.w3.org/2000/svg" version="1.1" xmlns:xlink="http://www.w3.org/1999/xlink" xmlns:svgjs="http://svgjs.dev/svgjs" width="2000" height="702" viewBox="0 0 2000 702"><g transform="matrix(1,0,0,1,-1.2121212121212466,0.11257551598413329)"><svg viewBox="0 0 396 139" data-background-color="#ffffff" preserveAspectRatio="xMidYMid meet" height="702" width="2000" xmlns="http://www.w3.org/2000/svg" xmlns:xlink="http://www.w3.org/1999/xlink"><g id="tight-bounds" transform="matrix(1,0,0,1,0.2400000000000091,-0.022290593620795107)"><svg viewBox="0 0 395.52 139.04443541867747" height="139.04443541867747" width="395.52"><g><svg viewBox="0 0 653.1696319592597 229.62075927488019" height="139.04443541867747" width="395.52"><g transform="matrix(1,0,0,1,257.64963195925975,66.97057105828794)"><svg viewBox="0 0 395.52 95.6796171583043" height="95.6796171583043" width="395.52"><g id="textblocktransform"><svg viewBox="0 0 395.52 95.6796171583043" height="95.6796171583043" width="395.52" id="textblock"><g><svg viewBox="0 0 395.52 59.364087591240875" height="59.364087591240875" width="395.52"><g transform="matrix(1,0,0,1,0,0)"><svg width="395.52" viewBox="1.7000000476837158 -32.45000076293945 219.1800079345703 32.900001525878906" height="59.364087591240875" data-palette-color="#4d7e3e"><path d="M17.8-32.45Q22.85-32.45 27.2-30.3L27.2-30.3 26.15-25.5 25.6-25.45Q23.15-26.9 21.15-27.53 19.15-28.15 16.95-28.15L16.95-28.15Q11.95-28.15 9.5-25.13 7.05-22.1 7.05-15.6L7.05-15.6Q7.05-9.4 9.35-6.63 11.65-3.85 16.65-3.85L16.65-3.85Q17.9-3.85 19.13-4.08 20.35-4.3 22.2-4.85L22.2-4.85 22.35-8.1 22.2-13.05 27.05-13.4 26.95-8.9 27.1-1.55Q20.9 0.4 16.35 0.4L16.35 0.4Q9 0.4 5.35-3.68 1.7-7.75 1.7-15.35L1.7-15.35Q1.7-23.65 5.88-28.05 10.05-32.45 17.8-32.45L17.8-32.45ZM48.95-12.85Q52.35-7.4 57-1.2L57-1.2 56.95-0.6Q54.55 0.2 52 0.45L52 0.45 51.4 0.05Q47.25-6.75 44.7-11.45L44.7-11.45 39.25-11.45 39.25-10.1 39.5 0 34.25 0 34.6-9.65 34.25-32.1 45.15-32.15Q50-32.15 52.65-29.73 55.3-27.3 55.3-22.8L55.3-22.8Q55.3-19.6 53.62-17.03 51.95-14.45 48.95-12.85L48.95-12.85ZM39.5-27.95L39.35-15.65 44.85-15.5Q49.9-17.05 49.9-22.4L49.9-22.4Q49.9-25.2 48.37-26.6 46.85-28 43.75-28.1L43.75-28.1 39.5-27.95ZM74-4.15L81.75-4.4 82.05-3.95 81.7 0 62.75 0 63.1-9.65 62.75-32.1 81.8-32.1 82.1-31.65 81.7-27.7 74.1-27.9 68-27.85 67.85-18.5 73.65-18.4 78.95-18.55 79.3-18.15 78.9-14.2 73.25-14.35 67.8-14.25 67.75-10.1 67.9-4.2 74-4.15ZM98.64-4.15L106.39-4.4 106.69-3.95 106.34 0 87.39 0 87.74-9.65 87.39-32.1 106.44-32.1 106.74-31.65 106.34-27.7 98.74-27.9 92.64-27.85 92.49-18.5 98.29-18.4 103.59-18.55 103.94-18.15 103.54-14.2 97.89-14.35 92.44-14.25 92.39-10.1 92.54-4.2 98.64-4.15ZM137.84-32.2L137.54-9.6 137.69 0 132.14 0 117.04-24.05 116.69-24.05 116.64-10.75 116.79 0 112.09 0 112.34-9.5 112.14-32.1 117.59-32.1 132.74-8.05 133.14-8.05 133.04-31.85 137.84-32.2ZM165.34-32.15Q170.19-32.15 172.81-29.68 175.44-27.2 175.44-22.55L175.44-22.55Q175.44-17.15 172.11-14 168.79-10.85 162.99-10.85L162.99-10.85 159.44-10.85 159.44-10.1 159.69 0 154.44 0 154.79-9.65 154.44-32.1 165.34-32.15ZM164.49-14.85Q167.24-15.4 168.66-17.23 170.09-19.05 170.09-22.1L170.09-22.1Q170.09-25.1 168.56-26.55 167.04-28 163.94-28.1L163.94-28.1 159.69-27.95 159.49-14.95 164.49-14.85ZM186.43-32.1L186.13-10.1 186.38 0 181.13 0 181.48-9.65 181.13-32.1 186.43-32.1ZM220.88-32.2L220.58-9.6 220.73 0 215.18 0 200.08-24.05 199.73-24.05 199.68-10.75 199.83 0 195.13 0 195.38-9.5 195.18-32.1 200.63-32.1 215.78-8.05 216.18-8.05 216.08-31.85 220.88-32.2Z" opacity="1" transform="matrix(1,0,0,1,0,0)" fill="#4d7e3e" class="wordmark-text-0" data-fill-palette-color="primary" id="text-0"></path></svg></g></svg></g><g transform="matrix(1,0,0,1,0,73.37852393343066)"><svg viewBox="0 0 232.209792 22.301093224873632" height="22.301093224873632" width="232.209792"><g transform="matrix(1,0,0,1,0,0)"><svg width="232.209792" viewBox="4.050000190734863 -40.45000076293945 425.30999755859375 40.85000228881836" height="22.301093224873632" data-palette-color="#4d7e3e"><path d="M21.75-14.7L14.85-14.7Q14-14.7 13.53-15.38 13.05-16.05 13.05-17.2L13.05-17.2Q13.05-19.75 15.15-19.75L15.15-19.75 20.45-19.75Q22.3-19.75 23.08-20.8 23.85-21.85 23.85-23.1L23.85-23.1 23.85-31.3Q23.85-32.55 23.08-33.6 22.3-34.65 20.45-34.65L20.45-34.65 9.95-34.65 9.95-2Q9.95 0.4 6.95 0.4L6.95 0.4Q4.05 0.4 4.05-2L4.05-2 4.05-36.7Q4.05-38.5 4.95-39.1 5.85-39.7 7.15-39.7L7.15-39.7 21.75-39.7Q23-39.7 24.4-39.15 25.8-38.6 27.1-37.75L27.1-37.75 27.05-37.75Q28.35-36.8 29.05-35.27 29.75-33.75 29.75-31.75L29.75-31.75 29.75-22.7Q29.75-18.65 27.05-16.65L27.05-16.65Q25.75-15.7 24.4-15.2 23.05-14.7 21.75-14.7L21.75-14.7ZM42.55-27.9L42.55-2.1Q42.55 0.3 39.8 0.3L39.8 0.3Q37 0.3 37-2.1L37-2.1 37-27.9Q37-30.3 39.8-30.3L39.8-30.3Q42.55-30.3 42.55-27.9L42.55-27.9ZM43.6-36.6L43.6-36.6Q43.6-35 42.5-33.9 41.4-32.8 39.8-32.8L39.8-32.8Q38.2-32.8 37.07-33.9 35.95-35 35.95-36.6L35.95-36.6Q35.95-38.25 37.07-39.35 38.2-40.45 39.8-40.45L39.8-40.45Q41.4-40.45 42.5-39.35 43.6-38.25 43.6-36.6ZM55-21.75L55-2.1Q55 0.3 52.25 0.3L52.25 0.3Q49.5 0.3 49.5-2.1L49.5-2.1 49.5-22.2Q49.5-24.25 50.15-25.75 50.8-27.25 52.2-28.2L52.2-28.2Q54.85-30.1 57.5-30.1L57.5-30.1 65.55-30.1Q68.1-30.1 70.85-28.2L70.85-28.2Q73.55-26.3 73.55-22.2L73.55-22.2 73.55-2.1Q73.55 0.3 70.8 0.3L70.8 0.3Q68.05 0.3 68.05-2.1L68.05-2.1 68.05-21.75Q68.05-23.05 67.25-24.25L67.25-24.25 67.3-24.2Q66.65-25.4 64.65-25.4L64.65-25.4 58.4-25.4Q56.35-25.4 55.7-24.2L55.7-24.2Q55-23.15 55-21.75L55-21.75ZM87.59-4.1L87.59-4.1Q87.59-2.4 86.44-1.23 85.29-0.05 83.59-0.05L83.59-0.05Q81.89-0.05 80.74-1.23 79.59-2.4 79.59-4.1L79.59-4.1Q79.59-5.75 80.74-6.93 81.89-8.1 83.59-8.1L83.59-8.1Q85.29-8.1 86.44-6.93 87.59-5.75 87.59-4.1ZM136.59-11.3L136.59-8Q136.59-3.95 133.89-1.95L133.89-1.95Q132.59-1 131.21-0.48 129.84 0.05 128.54 0.05L128.54 0.05 117.64 0.05Q116.34 0.05 114.96-0.48 113.59-1 112.29-1.95L112.29-1.95Q110.99-2.95 110.29-4.42 109.59-5.9 109.59-8L109.59-8 109.59-31.75Q109.59-33.75 110.29-35.27 110.99-36.8 112.29-37.75L112.29-37.75 112.24-37.75Q113.54-38.6 114.94-39.15 116.34-39.7 117.64-39.7L117.64-39.7 128.54-39.7Q129.84-39.7 131.24-39.15 132.64-38.6 133.94-37.75L133.94-37.75 133.89-37.75Q135.19-36.8 135.89-35.27 136.59-33.75 136.59-31.75L136.59-31.75 136.59-28.3Q136.59-25.9 133.59-25.9L133.59-25.9Q130.64-25.9 130.64-28.3L130.64-28.3 130.64-31.3Q130.64-32.55 129.89-33.6 129.14-34.65 127.29-34.65L127.29-34.65 118.89-34.65Q117.04-34.65 116.29-33.6 115.54-32.55 115.54-31.3L115.54-31.3 115.54-8.4Q115.54-7.1 116.29-6.05 117.04-5 118.89-5L118.89-5 127.29-5Q129.14-5 129.89-6.05 130.64-7.1 130.64-8.4L130.64-8.4 130.64-11.3Q130.64-13.65 133.59-13.65L133.59-13.65Q136.59-13.65 136.59-11.3L136.59-11.3ZM149.09-37.8L149.09-1.95Q149.09 0.4 146.34 0.4L146.34 0.4Q143.54 0.4 143.54-1.95L143.54-1.95 143.54-37.8Q143.54-40.15 146.34-40.15L146.34-40.15Q149.09-40.15 149.09-37.8L149.09-37.8ZM161.48-22.15L161.48-8Q161.48-6.8 162.26-5.75 163.03-4.7 164.88-4.7L164.88-4.7 171.13-4.7Q172.98-4.7 173.76-5.63 174.53-6.55 174.53-7.75L174.53-7.75 174.53-8.3Q174.53-10.65 177.28-10.65L177.28-10.65Q180.03-10.65 180.03-8.3L180.03-8.3 180.03-7.7Q180.03-5.6 179.36-4.25 178.68-2.9 177.33-1.9L177.33-1.9Q174.68 0 172.03 0L172.03 0 163.63 0Q160.98 0 158.48-1.9L158.48-1.9Q157.28-2.9 156.63-4.42 155.98-5.95 155.98-7.95L155.98-7.95 155.98-22.2Q155.98-26.25 158.48-28.2L158.48-28.2Q159.73-29.1 161.06-29.63 162.38-30.15 163.63-30.15L163.63-30.15 172.03-30.15Q173.23-30.15 174.68-29.68 176.13-29.2 177.38-28.4L177.38-28.4Q178.58-27.55 179.31-26.05 180.03-24.55 180.03-22.5L180.03-22.5 180.03-15.75Q180.03-14.6 179.36-13.7 178.68-12.8 176.88-12.8L176.88-12.8 166.08-12.8Q164.28-12.8 164.18-15.15L164.18-15.15Q164.18-17.5 166.08-17.5L166.08-17.5 174.58-17.5 174.53-22.15Q174.53-23.4 173.76-24.43 172.98-25.45 171.13-25.45L171.13-25.45 164.88-25.45Q163.03-25.45 162.26-24.43 161.48-23.4 161.48-22.15L161.48-22.15ZM200.48 0L193.93 0Q192.38 0 190.98-0.43 189.58-0.85 188.28-1.65L188.28-1.65 188.28-1.6Q185.83-3.15 185.83-7.3L185.83-7.3 185.83-9.75Q185.83-11.8 186.56-13.33 187.28-14.85 188.58-15.75L188.58-15.75 188.53-15.75Q189.78-16.6 191.18-17.03 192.58-17.45 193.88-17.45L193.88-17.45 204.93-17.45 204.93-22.1Q204.93-23.35 204.16-24.38 203.38-25.4 201.53-25.4L201.53-25.4 195.68-25.4Q193.78-25.4 193.06-24.48 192.33-23.55 192.33-22.3L192.33-22.3 192.33-21.9Q192.33-19.3 189.53-19.3L189.53-19.3Q186.73-19.3 186.73-21.9L186.73-21.9 186.73-22.35Q186.73-24.4 187.46-25.8 188.18-27.2 189.43-28.15L189.43-28.15 189.38-28.15Q190.68-29 192.11-29.55 193.53-30.1 194.83-30.1L194.83-30.1 202.43-30.1Q203.68-30.1 205.11-29.55 206.53-29 207.78-28.15L207.78-28.15 207.73-28.15Q209.03-27.2 209.73-25.68 210.43-24.15 210.43-22.15L210.43-22.15 210.43-2.1Q210.43 0.3 207.68 0.3L207.68 0.3Q207.13 0.3 206.66 0.25 206.18 0.2 205.81-0.03 205.43-0.25 205.21-0.68 204.98-1.1 204.98-1.8L204.98-1.8 204.93-12.75 194.83-12.75Q193.73-12.75 193.13-12.5 192.53-12.25 192.18-11.7L192.18-11.7Q191.78-10.85 191.61-10.38 191.43-9.9 191.43-9.3L191.43-9.3 191.43-7.35Q191.43-6.05 192.21-5.38 192.98-4.7 194.88-4.7L194.88-4.7 200.48-4.7Q202.33-4.7 202.33-2.35L202.33-2.35Q202.33-1.35 201.88-0.68 201.43 0 200.48 0L200.48 0ZM222.38-21.75L222.38-2.1Q222.38 0.3 219.63 0.3L219.63 0.3Q216.88 0.3 216.88-2.1L216.88-2.1 216.88-22.2Q216.88-24.25 217.53-25.75 218.18-27.25 219.58-28.2L219.58-28.2Q222.23-30.1 224.88-30.1L224.88-30.1 232.93-30.1Q235.48-30.1 238.23-28.2L238.23-28.2Q240.93-26.3 240.93-22.2L240.93-22.2 240.93-2.1Q240.93 0.3 238.18 0.3L238.18 0.3Q235.43 0.3 235.43-2.1L235.43-2.1 235.43-21.75Q235.43-23.05 234.63-24.25L234.63-24.25 234.68-24.2Q234.03-25.4 232.03-25.4L232.03-25.4 225.78-25.4Q223.73-25.4 223.08-24.2L223.08-24.2Q222.38-23.15 222.38-21.75L222.38-21.75ZM254.98-4.1L254.98-4.1Q254.98-2.4 253.83-1.23 252.68-0.05 250.98-0.05L250.98-0.05Q249.28-0.05 248.13-1.23 246.98-2.4 246.98-4.1L246.98-4.1Q246.98-5.75 248.13-6.93 249.28-8.1 250.98-8.1L250.98-8.1Q252.68-8.1 253.83-6.93 254.98-5.75 254.98-4.1ZM297.57-8.4L297.57-18.05Q297.57-20.5 300.57-20.5L300.57-20.5Q303.52-20.5 303.52-18.15L303.52-18.15 303.52-8Q303.52-3.95 300.82-1.95L300.82-1.95Q299.52-1 298.15-0.48 296.77 0.05 295.47 0.05L295.47 0.05 285.07 0.05Q283.77 0.05 282.4-0.48 281.02-1 279.72-1.95L279.72-1.95Q278.42-2.95 277.72-4.42 277.02-5.9 277.02-8L277.02-8 277.02-31.75Q277.02-33.8 277.75-35.3 278.47-36.8 279.72-37.75L279.72-37.75 279.67-37.75Q280.97-38.6 282.37-39.15 283.77-39.7 285.07-39.7L285.07-39.7 294.97-39.7Q296.27-39.7 297.67-39.15 299.07-38.6 300.37-37.75L300.37-37.75 300.32-37.75Q302.97-35.8 302.97-31.75L302.97-31.75 302.97-28.3Q302.97-25.9 300.02-25.9L300.02-25.9Q297.07-25.9 297.07-28.3L297.07-28.3 297.07-31.3Q297.07-32.55 296.32-33.6 295.57-34.65 293.72-34.65L293.72-34.65 286.37-34.65Q284.47-34.65 283.72-33.6 282.97-32.55 282.97-31.3L282.97-31.3 282.97-8.4Q282.97-7.75 283.15-7.15 283.32-6.55 283.72-6.08 284.12-5.6 284.77-5.3 285.42-5 286.37-5L286.37-5 294.22-5Q296.07-5 296.82-6.05 297.57-7.1 297.57-8.4L297.57-8.4ZM295.22-18.6L295.22-18.6Q295.22-17.75 294.9-16.98 294.57-16.2 294-15.65 293.42-15.1 292.67-14.78 291.92-14.45 291.02-14.45L291.02-14.45Q289.32-14.45 288.12-15.65 286.92-16.85 286.92-18.6L286.92-18.6Q286.92-20.3 288.12-21.5 289.32-22.7 291.02-22.7L291.02-22.7Q291.92-22.7 292.67-22.38 293.42-22.05 294-21.5 294.57-20.95 294.9-20.2 295.22-19.45 295.22-18.6ZM316.17-22.75L316.17-2.1Q316.17 0.3 313.42 0.3L313.42 0.3Q310.57 0.3 310.57-2.1L310.57-2.1 310.57-22.8Q310.57-26.9 313.02-28.5L313.02-28.5Q315.47-30.1 318.67-30.1L318.67-30.1 324.37-30.1Q326.22-30.1 326.22-27.75L326.22-27.75Q326.32-25.4 324.37-25.4L324.37-25.4 319.07-25.4Q317.27-25.4 316.72-24.7 316.17-24 316.17-22.75L316.17-22.75ZM335.97-22.15L335.97-8Q335.97-6.8 336.74-5.75 337.52-4.7 339.37-4.7L339.37-4.7 345.62-4.7Q347.47-4.7 348.24-5.63 349.02-6.55 349.02-7.75L349.02-7.75 349.02-8.3Q349.02-10.65 351.77-10.65L351.77-10.65Q354.52-10.65 354.52-8.3L354.52-8.3 354.52-7.7Q354.52-5.6 353.84-4.25 353.17-2.9 351.81-1.9L351.81-1.9Q349.17 0 346.52 0L346.52 0 338.12 0Q335.47 0 332.97-1.9L332.97-1.9Q331.77-2.9 331.12-4.42 330.47-5.95 330.47-7.95L330.47-7.95 330.47-22.2Q330.47-26.25 332.97-28.2L332.97-28.2Q334.22-29.1 335.54-29.63 336.87-30.15 338.12-30.15L338.12-30.15 346.52-30.15Q347.72-30.15 349.17-29.68 350.62-29.2 351.87-28.4L351.87-28.4Q353.06-27.55 353.79-26.05 354.52-24.55 354.52-22.5L354.52-22.5 354.52-15.75Q354.52-14.6 353.84-13.7 353.17-12.8 351.37-12.8L351.37-12.8 340.56-12.8Q338.77-12.8 338.67-15.15L338.67-15.15Q338.67-17.5 340.56-17.5L340.56-17.5 349.06-17.5 349.02-22.15Q349.02-23.4 348.24-24.43 347.47-25.45 345.62-25.45L345.62-25.45 339.37-25.45Q337.52-25.45 336.74-24.43 335.97-23.4 335.97-22.15L335.97-22.15ZM366.36-22.15L366.36-8Q366.36-6.8 367.14-5.75 367.91-4.7 369.76-4.7L369.76-4.7 376.01-4.7Q377.86-4.7 378.64-5.63 379.41-6.55 379.41-7.75L379.41-7.75 379.41-8.3Q379.41-10.65 382.16-10.65L382.16-10.65Q384.91-10.65 384.91-8.3L384.91-8.3 384.91-7.7Q384.91-5.6 384.24-4.25 383.56-2.9 382.21-1.9L382.21-1.9Q379.56 0 376.91 0L376.91 0 368.51 0Q365.86 0 363.36-1.9L363.36-1.9Q362.16-2.9 361.51-4.42 360.86-5.95 360.86-7.95L360.86-7.95 360.86-22.2Q360.86-26.25 363.36-28.2L363.36-28.2Q364.61-29.1 365.94-29.63 367.26-30.15 368.51-30.15L368.51-30.15 376.91-30.15Q378.11-30.15 379.56-29.68 381.01-29.2 382.26-28.4L382.26-28.4Q383.46-27.55 384.19-26.05 384.91-24.55 384.91-22.5L384.91-22.5 384.91-15.75Q384.91-14.6 384.24-13.7 383.56-12.8 381.76-12.8L381.76-12.8 370.96-12.8Q369.16-12.8 369.06-15.15L369.06-15.15Q369.06-17.5 370.96-17.5L370.96-17.5 379.46-17.5 379.41-22.15Q379.41-23.4 378.64-24.43 377.86-25.45 376.01-25.45L376.01-25.45 369.76-25.45Q367.91-25.45 367.14-24.43 366.36-23.4 366.36-22.15L366.36-22.15ZM396.76-21.75L396.76-2.1Q396.76 0.3 394.01 0.3L394.01 0.3Q391.26 0.3 391.26-2.1L391.26-2.1 391.26-22.2Q391.26-24.25 391.91-25.75 392.56-27.25 393.96-28.2L393.96-28.2Q396.61-30.1 399.26-30.1L399.26-30.1 407.31-30.1Q409.86-30.1 412.61-28.2L412.61-28.2Q415.31-26.3 415.31-22.2L415.31-22.2 415.31-2.1Q415.31 0.3 412.56 0.3L412.56 0.3Q409.81 0.3 409.81-2.1L409.81-2.1 409.81-21.75Q409.81-23.05 409.01-24.25L409.01-24.25 409.06-24.2Q408.41-25.4 406.41-25.4L406.41-25.4 400.16-25.4Q398.11-25.4 397.46-24.2L397.46-24.2Q396.76-23.15 396.76-21.75L396.76-21.75ZM429.36-4.1L429.36-4.1Q429.36-2.4 428.21-1.23 427.06-0.05 425.36-0.05L425.36-0.05Q423.66-0.05 422.51-1.23 421.36-2.4 421.36-4.1L421.36-4.1Q421.36-5.75 422.51-6.93 423.66-8.1 425.36-8.1L425.36-8.1Q427.06-8.1 428.21-6.93 429.36-5.75 429.36-4.1Z" opacity="1" transform="matrix(1,0,0,1,0,0)" fill="#4d7e3e" class="slogan-text-1" data-fill-palette-color="secondary" id="text-1"></path></svg></g></svg></g></svg></g></svg></g><g><svg viewBox="0 0 229.62075927488019 229.62075927488019" height="229.62075927488019" width="229.62075927488019"><g><svg></svg></g><g id="icon-0"><svg viewBox="0 0 229.62075927488019 229.62075927488019" height="229.62075927488019" width="229.62075927488019"><g><path d="M0 114.81c0-63.408 51.402-114.81 114.81-114.81 63.408 0 114.81 51.402 114.811 114.81 0 63.408-51.402 114.81-114.811 114.811-63.408 0-114.81-51.402-114.81-114.811zM114.81 224.267c60.451 0 109.457-49.006 109.457-109.457 0-60.451-49.006-109.457-109.457-109.456-60.451 0-109.457 49.006-109.456 109.456 0 60.451 49.006 109.457 109.456 109.457z" data-fill-palette-color="accent" fill="#4d7e3e" stroke="transparent"></path></g><g transform="matrix(1,0,0,1,46.26882011085351,46.26882011085351)"><svg viewBox="0 0 137.08311905317316 137.08311905317316" height="137.08311905317316" width="137.08311905317316"><g><svg xmlns="http://www.w3.org/2000/svg" xmlns:xlink="http://www.w3.org/1999/xlink" version="1.1" x="0" y="0" viewBox="0 0 100 100" style="enable-background:new 0 0 100 100;" xml:space="preserve" height="137.08311905317316" width="137.08311905317316" class="icon-s-0" data-fill-palette-color="accent" id="s-0"><path d="M100 25c0-13.8-11.206-25-25-25-9.326 0-17.383 5.182-21.68 12.769 0-0.006 0.012-0.013 0.012-0.019-1.146-0.109-2.258-0.348-3.43-0.348-20.715 0-37.5 16.785-37.5 37.5 0 7.898 2.466 15.21 6.629 21.24L0 100l29.028-18.945c5.97 4.004 13.147 6.348 20.874 6.348 20.715 0 37.5-16.785 37.5-37.5 0-1.08-0.22-2.094-0.317-3.149C94.751 42.48 100 34.394 100 25zM49.902 74.902c-13.794 0-25-11.206-25-25 0-13.788 11.206-25 25-25 0.037 0 0.073 0.012 0.098 0.012 0-0.023 0.012-0.042 0.012-0.061C50.012 24.902 50 24.951 50 25c0 2.173 0.366 4.236 0.879 6.244l-9.912 9.918c-4.883 4.883-4.883 12.793 0 17.676s12.793 4.883 17.676 0l9.814-9.814c2.062 0.562 4.199 0.952 6.434 0.965C74.842 63.745 63.66 74.902 49.902 74.902zM75 37.5c-6.885 0-12.5-5.609-12.5-12.5S68.115 12.5 75 12.5 87.5 18.109 87.5 25 81.885 37.5 75 37.5z" fill="#4d7e3e" data-fill-palette-color="accent"></path></svg></g></svg></g></svg></g></svg></g></svg></g><defs></defs></svg><rect width="395.52" height="139.04443541867747" fill="none" stroke="none" visibility="hidden"></rect></g></svg></g></svg>